<svg width="144" height="44" viewBox="0 0 144 44" fill="none" xmlns="http://www.w3.org/2000/svg">
<path d="M38.7698 19.4029C38.7698 20.3658 38.7691 21.3286 38.7685 22.2914C38.7666 24.9868 38.7648 27.6816 38.7772 30.3769C38.7772 31.1135 38.5066 31.5906 37.8814 31.9641C32.3109 35.2361 26.7471 38.5195 21.1903 41.814C20.7489 42.0764 20.3113 42.2192 19.8205 41.9914C19.7052 41.9351 19.5932 41.8728 19.4846 41.8047C13.8711 38.4896 8.25818 35.1752 2.64593 31.8614C2.15699 31.5729 1.91905 31.1696 1.91999 30.5851C1.92496 24.8525 1.92496 19.1187 1.91999 13.3837C1.91999 12.7665 2.16352 12.338 2.68046 12.0336C8.30515 8.71542 13.9289 5.39508 19.5517 2.07256C20.1004 1.74765 20.6052 1.75699 21.1511 2.0819C22.4606 2.86056 23.7727 3.63535 25.0845 4.41001C26.7924 5.41857 28.5008 6.42738 30.2021 7.4438C30.5249 7.63613 30.7619 7.65573 31.082 7.4438C31.6306 7.09422 32.1888 6.76097 32.7469 6.42782C33.2053 6.15415 33.6636 5.88051 34.1164 5.59799C34.6763 5.25161 35.196 5.23853 35.7549 5.58212C36.4946 6.03773 37.2432 6.47997 38.0009 6.90882C38.5271 7.20665 38.7707 7.63893 38.7698 8.25233C38.7654 11.9701 38.7654 15.687 38.7698 19.4029Z" stroke="white" stroke-width="3"/>
<path d="M141.516 10.9222H136.356V33.496H141.516V10.9222ZM133.123 18.4473H127.963V26.905C127.963 27.5644 127.754 28.0773 127.333 28.5C126.913 28.9228 126.404 29.1015 125.803 29.1015C125.146 29.1015 124.635 28.9213 124.213 28.5C123.792 28.0788 123.613 27.5666 123.613 26.905V18.4473H118.453V26.483C118.453 28.7103 119.144 30.4863 120.524 31.8409C121.904 33.1956 123.644 33.8572 125.803 33.8572C127.933 33.8572 129.674 33.1978 131.054 31.8409C132.434 30.484 133.123 28.7103 133.123 26.483V18.4473ZM111.362 18.4473L108.331 25.2192L105.271 18.4473H99.8128L107.495 33.8572H109.146L116.828 18.4473H111.362ZM98.0697 10.9222H92.91V33.496H98.0697V10.9222ZM89.5443 18.4473H84.3841V33.496H89.5443V18.4473ZM86.9342 10.0496C86.0346 10.0496 85.2843 10.3505 84.6836 10.9523C84.3941 11.2328 84.165 11.5697 84.0103 11.9425C83.8555 12.3152 83.7785 12.7157 83.7839 13.1194C83.7839 13.9927 84.0838 14.7152 84.6836 15.2867C85.2846 15.8889 86.0346 16.1599 86.9342 16.1599C87.804 16.1599 88.554 15.8889 89.1842 15.2867C89.7838 14.6851 90.1138 13.9628 90.1138 13.1194C90.1138 12.2761 89.7838 11.5545 89.1842 10.9523C88.8871 10.6603 88.5353 10.4303 88.1491 10.2754C87.763 10.1205 87.3501 10.0438 86.9342 10.0496ZM82.7119 33.4946L77.1925 25.1598L82.3525 18.448H76.3819L71.7024 24.5291V10.9222H66.5423V33.496H71.7024V25.5504L77.0421 33.496L82.7119 33.4946ZM56.5683 13.2689C54.5287 13.2689 52.8484 13.8103 51.5587 14.8939C50.2691 15.9776 49.6381 17.3923 49.6381 19.1382C49.6381 21.6659 51.2885 23.6807 54.6485 25.1269L56.6881 26.0303C57.468 26.3914 57.9778 26.6625 58.2778 26.8728C58.4169 26.9978 58.5267 27.152 58.5994 27.3246C58.6721 27.497 58.7059 27.6836 58.6985 27.8707C58.6985 28.8341 58.0077 29.3155 56.6582 29.3155C54.9785 29.3155 53.5085 28.4722 52.2481 26.757L48.7669 29.4027C49.4749 30.7739 50.571 31.9048 51.9173 32.6534C53.2975 33.466 54.8581 33.8572 56.6574 33.8572C58.7576 33.8572 60.4673 33.3158 61.8474 32.2021C63.2276 31.0885 63.917 29.5829 63.917 27.6597C63.917 26.275 63.4971 25.102 62.6573 24.1686C61.8174 23.2351 60.557 22.3926 58.8475 21.6703L56.5676 20.7075C55.9074 20.4662 55.4574 20.2254 55.2174 19.9851C55.0985 19.8669 55.0052 19.7255 54.943 19.5696C54.8808 19.4136 54.8511 19.2467 54.8559 19.0788C54.8559 18.2363 55.4255 17.815 56.6246 17.815C57.262 17.8051 57.8883 17.9834 58.4254 18.3279C59.0027 18.7713 59.4998 19.3109 59.8955 19.9229L63.3452 17.2743C61.9957 14.6243 59.745 13.2704 56.5654 13.2704L56.5683 13.2689Z" fill="#0F1029"/>
<path fill-rule="evenodd" clip-rule="evenodd" d="M31.7594 9.24836C31.8406 9.18767 31.9143 9.12418 31.9955 9.07377C32.8875 8.53506 33.7842 8.00661 34.6688 7.4567C34.7516 7.39265 34.8534 7.35791 34.958 7.35791C35.0627 7.35791 35.1644 7.39265 35.2473 7.4567C35.7288 7.76293 36.2243 8.04303 36.7179 8.33152C36.8634 8.41462 36.9577 8.50705 36.9567 8.70031C36.9493 9.84682 36.9502 10.9933 36.9474 12.1398C36.9423 12.182 36.9319 12.2234 36.9166 12.2631C36.6208 12.1968 32.1765 9.60407 31.7594 9.24836Z" fill="#A41923"/>
<path fill-rule="evenodd" clip-rule="evenodd" d="M28.2556 19.5317C28.3303 20.0714 28.6811 21.0647 28.8864 21.3318L29.9473 20.5288C29.3474 20.1759 28.8192 19.866 28.2556 19.5317ZM26.7627 18.6447L25.1027 17.6644C25.0794 17.6887 25.0551 17.712 25.0299 17.7354C25.2212 18.3012 25.4125 18.867 25.6271 19.5C26.0116 19.2143 26.3587 18.9519 26.7618 18.6466L26.7627 18.6447ZM30.1414 13.4304C30.1414 12.8823 30.1349 12.4482 30.1414 12.015C30.147 11.817 30.0248 11.7349 29.8867 11.6546C29.4195 11.3813 28.9529 11.1068 28.4871 10.8311L27.3095 10.1402C26.8653 10.4062 26.4445 10.6621 25.9537 10.959C27.372 11.7965 28.7129 12.5882 30.1405 13.4322L30.1414 13.4304ZM31.7603 9.20558C32.1774 9.5613 36.6218 12.1569 36.9176 12.2222C36.9325 12.1825 36.9428 12.1411 36.9484 12.099C36.9484 10.9524 36.9484 9.80498 36.9577 8.65847C36.9577 8.46615 36.8644 8.37277 36.7188 8.28968C36.2252 8.00118 35.7288 7.72109 35.2483 7.41485C35.1654 7.35081 35.0637 7.31607 34.959 7.31607C34.8543 7.31607 34.7526 7.35081 34.6697 7.41485C33.7852 7.9657 32.8885 8.49322 31.9964 9.03192C31.9143 9.08328 31.8406 9.14677 31.7594 9.20746L31.7603 9.20558ZM20.9066 4.07708C20.8885 4.15931 20.8753 4.24255 20.8674 4.32638C20.8674 5.44675 20.8674 6.56057 20.8609 7.67814C20.8609 7.89848 20.9542 8.01145 21.1315 8.11695C22.1429 8.70235 23.147 9.30361 24.1528 9.89741C24.4094 10.0487 24.667 10.1962 24.932 10.3493C25.6057 9.94409 26.2682 9.55196 26.9232 9.14863C27.0338 9.07051 27.1655 9.02749 27.3009 9.02515C27.4364 9.02283 27.5694 9.0613 27.6827 9.13556C28.7228 9.75425 29.766 10.3698 30.8123 10.9823C30.9336 11.0465 31.0333 11.1452 31.0985 11.2661C31.1638 11.3869 31.1918 11.5243 31.179 11.6611C31.1688 12.1111 31.1744 12.5602 31.179 13.0102C31.179 13.1185 31.2005 13.2259 31.2192 13.3921C32.1336 12.8478 33.0023 12.3324 33.9186 11.761L20.9066 4.07708ZM3.74792 17.4441L19.7831 7.97411C19.8587 7.32989 19.8335 4.45054 19.7468 4.1191C19.6311 4.17885 19.5181 4.22927 19.4108 4.29369C14.2919 7.31496 9.17168 10.3362 4.05024 13.3575C3.8123 13.4976 3.705 13.6376 3.7106 13.9336C3.72833 14.9606 3.71713 15.9941 3.71899 17.0249C3.71806 17.1332 3.73392 17.2452 3.74792 17.4441ZM3.71713 29.7261C3.92241 29.6188 4.04744 29.559 4.16688 29.4909C4.64649 29.2108 5.1233 28.9251 5.60198 28.6413C10.2189 25.9156 14.8359 23.1919 19.4528 20.47C19.7169 20.3141 19.8317 20.1516 19.8261 19.8295C19.8083 18.4954 19.8205 17.1593 19.8186 15.8242C19.8186 15.687 19.8027 15.5488 19.7925 15.3574C19.6059 15.4554 19.4734 15.5245 19.3418 15.6011L15.922 17.6252C11.9906 19.9431 8.05912 22.2592 4.12769 24.5734C3.81417 24.7601 3.70313 24.959 3.70966 25.3203C3.73206 26.5966 3.71806 27.8747 3.71806 29.1482C3.71713 29.3116 3.71713 29.4703 3.71713 29.7261ZM3.71713 23.5744C3.90375 23.481 4.01945 23.4287 4.12489 23.3662C9.25628 20.3374 14.3883 17.3099 19.5209 14.2837C19.7514 14.1483 19.8251 13.9924 19.8233 13.7319C19.813 12.3539 19.8186 10.9739 19.8177 9.59678C19.8177 9.48661 19.7981 9.3783 19.785 9.22332C19.6367 9.29801 19.5219 9.34749 19.4118 9.41005C18.9807 9.6612 18.5505 9.91795 18.1204 10.171C13.4456 12.9321 8.76797 15.691 4.08757 18.4478C3.80111 18.6149 3.69847 18.7959 3.70406 19.1321C3.72273 20.4523 3.71153 21.7734 3.71153 23.0926L3.71713 23.5744ZM20.8674 9.19904V9.72096C20.8674 11.0281 20.8814 12.3352 20.8571 13.6423C20.8515 14.0008 20.9822 14.181 21.2714 14.3519C24.3817 16.1762 27.4905 18.008 30.5977 19.8473C30.724 19.9134 30.8447 19.9896 30.9588 20.0751C31.2947 20.3552 31.221 20.7968 30.8273 20.9845C30.5857 21.0985 30.3538 21.2321 30.134 21.3841C29.7477 21.6548 29.3791 21.9517 28.9965 22.2243C28.5748 22.5315 28.3816 22.4708 28.2081 21.9732C27.9337 21.1805 27.6687 20.386 27.3963 19.5905C27.3608 19.4897 27.303 19.3963 27.2516 19.2778C27.0911 19.3898 26.9624 19.4785 26.8373 19.5719C26.4716 19.8463 26.1123 20.132 25.7391 20.3944C25.4172 20.625 25.1914 20.5456 25.0439 20.1722C25.0178 20.1068 25.0001 20.0349 24.9777 19.9659C24.6978 19.1433 24.4178 18.3216 24.1472 17.4982C24.0953 17.3039 23.9684 17.138 23.7945 17.037C22.9174 16.531 22.0487 16.01 21.1753 15.4993C21.0852 15.4551 20.9916 15.4186 20.8954 15.3901C20.8861 15.5423 20.873 15.658 20.873 15.7701C20.873 17.135 20.8805 18.501 20.8646 19.865C20.8536 19.9843 20.8795 20.1042 20.939 20.2082C20.9984 20.3123 21.0885 20.3955 21.1968 20.4467C26.3108 23.4567 31.4214 26.4708 36.5285 29.489C36.646 29.56 36.772 29.6169 36.9222 29.6953C36.9396 29.5961 36.9517 29.4961 36.9586 29.3956C36.9586 24.2126 36.9608 19.0294 36.9651 13.8458C36.9734 13.7538 36.9533 13.6614 36.9077 13.5811C36.8619 13.5008 36.7928 13.4365 36.7095 13.3967C36.2373 13.1307 35.7652 12.8646 35.3098 12.5695C35.0616 12.408 34.8731 12.4099 34.6184 12.5695C33.4912 13.2679 32.3398 13.9289 31.2173 14.6376C30.8273 14.8822 30.5231 14.885 30.1246 14.6469C27.2096 12.9047 24.2835 11.1849 21.3601 9.46046C21.2201 9.38297 21.0829 9.31575 20.8674 9.19904ZM38.7698 19.4029C38.7698 23.0618 38.7604 26.7189 38.7772 30.3769C38.7772 31.1135 38.5066 31.5906 37.8814 31.9641C32.3109 35.2361 26.7471 38.5195 21.1903 41.814C20.7489 42.0764 20.3113 42.2192 19.8205 41.9914C19.7052 41.9351 19.5932 41.8728 19.4846 41.8047C13.8711 38.4896 8.25818 35.1752 2.64593 31.8614C2.15699 31.5729 1.91905 31.1696 1.91999 30.5851C1.92496 24.8525 1.92496 19.1187 1.91999 13.3837C1.91999 12.7665 2.16352 12.338 2.68046 12.0336C8.30515 8.71542 13.9289 5.39508 19.5517 2.07256C20.1004 1.74765 20.6052 1.75699 21.1511 2.0819C24.1659 3.87448 27.1938 5.64654 30.2021 7.4438C30.5249 7.63613 30.7619 7.65573 31.082 7.4438C32.0813 6.80705 33.1124 6.22446 34.1164 5.59799C34.6763 5.25161 35.196 5.23854 35.7549 5.58212C36.4946 6.03773 37.2432 6.47997 38.0009 6.90882C38.5271 7.20665 38.7707 7.63893 38.7698 8.25233C38.7654 11.9701 38.7654 15.687 38.7698 19.4029Z" fill="#0F1029"/>
<path fill-rule="evenodd" clip-rule="evenodd" d="M20.8673 9.19873C21.0847 9.31544 21.2219 9.38547 21.3544 9.46109C24.2768 11.1856 27.204 12.9053 30.118 14.6466C30.5174 14.8846 30.8206 14.8828 31.2107 14.6372C32.3304 13.9295 33.4846 13.2704 34.6127 12.5701C34.8665 12.4114 35.056 12.4096 35.3042 12.5701C35.7586 12.8642 36.2326 13.1303 36.7038 13.3974C36.7864 13.4376 36.855 13.502 36.9004 13.5819C36.9458 13.6619 36.9661 13.7538 36.9585 13.8455C36.9529 19.0296 36.9511 24.2129 36.9529 29.3953C36.9457 29.4958 36.9332 29.5958 36.9156 29.695C36.7644 29.6166 36.6357 29.5596 36.5228 29.4896C31.4125 26.4739 26.3019 23.4598 21.1911 20.4473C20.9522 20.3072 20.8552 20.1541 20.8589 19.8656C20.8748 18.5016 20.8655 17.1357 20.8673 15.7707C20.8673 15.6577 20.8794 15.5429 20.8897 15.3907C20.9858 15.4192 21.0794 15.4553 21.1696 15.499C22.043 16.0097 22.9108 16.5335 23.7879 17.0367C23.9629 17.1394 24.0899 17.3072 24.1415 17.5035C24.4131 18.3279 24.6949 19.1477 24.9711 19.9711C24.9944 20.0402 25.0121 20.1112 25.0373 20.1775C25.1857 20.5509 25.4106 20.6293 25.7334 20.3997C26.1066 20.1336 26.4659 19.8516 26.8317 19.5771C26.9567 19.4838 27.0845 19.396 27.245 19.2821C27.2987 19.3841 27.3469 19.4887 27.3896 19.5958C27.6621 20.3894 27.9271 21.183 28.2024 21.9775C28.3759 22.4761 28.5709 22.5377 28.9908 22.2296C29.3725 21.9495 29.742 21.6545 30.1273 21.3847C30.347 21.2325 30.5789 21.0989 30.8206 20.9851C31.2153 20.7983 31.2872 20.3539 30.9531 20.0748C30.8377 19.991 30.7168 19.9152 30.5911 19.8479C27.4807 18.0129 24.3704 16.1808 21.2602 14.3515C20.9718 14.1816 20.8403 14.0005 20.8468 13.6429C20.8701 12.3358 20.8561 11.0287 20.8561 9.72157C20.8673 9.57779 20.8673 9.43401 20.8673 9.19873Z" fill="#FF3034"/>
<path fill-rule="evenodd" clip-rule="evenodd" d="M3.7171 23.5742V23.0924C3.7171 21.7741 3.72923 20.4521 3.70963 19.1328C3.70404 18.7977 3.80294 18.6165 4.09314 18.4485C8.7754 15.6949 13.453 12.936 18.1259 10.1718C18.5561 9.91875 18.9862 9.662 19.4173 9.41085C19.5228 9.34923 19.6385 9.29975 19.7906 9.22412C19.8055 9.3763 19.8232 9.48461 19.8232 9.59758C19.8232 10.9756 19.8232 12.3546 19.8288 13.7327C19.8288 13.9931 19.757 14.1491 19.5265 14.2835C14.3908 17.3066 9.25875 20.3344 4.13046 23.3669C4.01942 23.4285 3.90558 23.4771 3.7171 23.5742Z" fill="#FF3034"/>
<path fill-rule="evenodd" clip-rule="evenodd" d="M3.71716 29.7258V29.1554C3.71716 27.8791 3.73116 26.6009 3.70877 25.3274C3.70224 24.9614 3.81233 24.7672 4.12679 24.5805C8.06134 22.2725 11.9931 19.9543 15.9221 17.6258C17.0623 16.9505 18.2035 16.276 19.3456 15.6026C19.4781 15.5261 19.6124 15.4588 19.7963 15.3599C19.8075 15.5466 19.8224 15.6866 19.8224 15.8267C19.8224 17.1609 19.8121 18.4969 19.8308 19.8311C19.8354 20.1522 19.7207 20.3156 19.4575 20.4706C14.8381 23.1882 10.2208 25.9124 5.60575 28.6437C5.12801 28.9275 4.64994 29.2104 4.17158 29.4924C4.04655 29.5587 3.92244 29.6147 3.71716 29.7258Z" fill="#FF3034"/>
<path fill-rule="evenodd" clip-rule="evenodd" d="M3.74783 17.4441C3.73384 17.2443 3.71891 17.1332 3.71891 17.0239C3.71891 15.9969 3.72824 14.9615 3.71051 13.9326C3.71051 13.6404 3.81408 13.4966 4.05016 13.3566C9.17222 10.339 14.2925 7.31776 19.4108 4.29276C19.5181 4.22927 19.6319 4.17698 19.7467 4.11816C19.8335 4.45054 19.8587 7.32989 19.7831 7.97411C14.4738 11.1102 9.14672 14.2566 3.74783 17.4441Z" fill="#A41923"/>
<path fill-rule="evenodd" clip-rule="evenodd" d="M20.9066 4.07715L33.9195 11.761C33.0032 12.3324 32.1345 12.8478 31.2191 13.3921C31.2005 13.2249 31.1809 13.1176 31.179 13.0102C31.179 12.5602 31.1697 12.1111 31.179 11.6602C31.1916 11.5236 31.1634 11.3863 31.0982 11.2657C31.033 11.1451 30.9334 11.0465 30.8123 10.9824C29.7672 10.3711 28.724 9.75556 27.6827 9.13562C27.5696 9.06073 27.4365 9.02189 27.3009 9.02423C27.1653 9.02656 27.0335 9.06996 26.9232 9.14869C26.27 9.55203 25.6066 9.94415 24.9319 10.3494C24.6669 10.1962 24.4085 10.0487 24.1528 9.89747C23.1469 9.30368 22.1429 8.70241 21.1314 8.11702C20.9532 8.01152 20.8599 7.89855 20.8608 7.67821C20.8702 6.55784 20.8655 5.44307 20.8674 4.32643C20.8753 4.24261 20.8884 4.15935 20.9066 4.07715Z" fill="#A41923"/>
<path fill-rule="evenodd" clip-rule="evenodd" d="M30.1405 13.4322L25.9556 10.9609C26.4464 10.664 26.8672 10.4082 27.3114 10.1421L28.4889 10.833C28.9555 11.1084 29.422 11.3829 29.8886 11.6564C30.0267 11.7377 30.1489 11.8189 30.1433 12.0168C30.134 12.45 30.1405 12.8842 30.1405 13.4322Z" fill="white"/>
<path fill-rule="evenodd" clip-rule="evenodd" d="M26.7618 18.6464C26.3596 18.9517 26.0153 19.2141 25.628 19.5035C25.4134 18.8696 25.2231 18.3047 25.0318 17.7389L25.1036 17.668L26.7618 18.6464Z" fill="white"/>
<path fill-rule="evenodd" clip-rule="evenodd" d="M28.2556 19.5317C28.8155 19.8641 29.3473 20.1741 29.9473 20.527C29.5526 20.8248 29.2195 21.0788 28.8864 21.3309C28.682 21.0666 28.3321 20.0742 28.2556 19.5317Z" fill="white"/>
<path d="M4.44116 30.882L20.272 21.1143L36.437 30.882L20.272 39.9019L4.44116 30.882Z" fill="#D41718"/>
</svg>
